<?xml version="1.0" encoding="UTF-8" standalone="no"?>
<svg xmlns:rdf="http://www.w3.org/1999/02/22-rdf-syntax-ns#" xmlns="http://www.w3.org/2000/svg" height="344" width="220" version="1.1" xmlns:cc="http://creativecommons.org/ns#" xmlns:xlink="http://www.w3.org/1999/xlink" xmlns:dc="http://purl.org/dc/elements/1.1/">
 <defs>
  <linearGradient id="ak">
   <stop stop-opacity="0" offset="0"/>
   <stop offset=".5"/>
   <stop stop-opacity="0" offset="1"/>
  </linearGradient>
  <linearGradient id="a">
   <stop offset="0"/>
   <stop stop-opacity="0" offset="1"/>
  </linearGradient>
  <linearGradient id="e">
   <stop stop-color="#888a85" offset="0"/>
   <stop stop-color="#eeeeec" offset="1"/>
  </linearGradient>
  <linearGradient id="aj" y2="8.3744" gradientUnits="userSpaceOnUse" x2="24.983" gradientTransform="scale(1.0683 .93606)" y1="22.828" x1="24.983">
   <stop stop-color="#59594a" offset="0"/>
   <stop stop-color="#a2a491" offset="1"/>
  </linearGradient>
  <linearGradient id="ai" y2="7.8679" gradientUnits="userSpaceOnUse" x2="60.071" gradientTransform="scale(.75046 1.3325)" y1="7.9206" x1="32.828">
   <stop stop-color="#cfcfc4" offset="0"/>
   <stop stop-color="#cfcfc4" offset=".32673"/>
   <stop stop-color="#cfcfc4" stop-opacity="0" offset="1"/>
  </linearGradient>
  <linearGradient id="ah" y2="40.859" gradientUnits="userSpaceOnUse" x2="24.588" y1="1.8991" x1="24.588">
   <stop stop-color="#cccdbc" offset="0"/>
   <stop stop-color="#b9baa4" offset="1"/>
  </linearGradient>
  <linearGradient id="ag" y2="25.232" gradientUnits="userSpaceOnUse" x2="28.443" gradientTransform="scale(.80686 1.2394)" y1="12.818" x1="23.643">
   <stop stop-color="#fffff3" offset="0"/>
   <stop stop-color="#fffff3" stop-opacity="0" offset="1"/>
  </linearGradient>
  <linearGradient id="af" y2="25.25" gradientUnits="userSpaceOnUse" x2="24.996" y1="37.625" x1="25.851">
   <stop stop-color="#fff" offset="0"/>
   <stop stop-color="#fff" stop-opacity="0" offset="1"/>
  </linearGradient>
  <radialGradient id="d" xlink:href="#a" gradientUnits="userSpaceOnUse" cy="43.5" cx="4.993" gradientTransform="matrix(2.0038 0 0 1.4 27.988 -17.4)" r="2.5"/>
  <radialGradient id="c" xlink:href="#a" gradientUnits="userSpaceOnUse" cy="43.5" cx="4.993" gradientTransform="matrix(2.0038 0 0 1.4 -20.012 -104.4)" r="2.5"/>
  <linearGradient id="f" y2="39.999" xlink:href="#ak" gradientUnits="userSpaceOnUse" x2="25.058" y1="47.028" x1="25.058"/>
  <radialGradient id="u" gradientUnits="userSpaceOnUse" cy="35.357" cx="-30.25" gradientTransform="matrix(3.9957 0 0 1.935 .62141 28.833)" r="18">
   <stop stop-color="#f6f6f5" offset="0"/>
   <stop stop-color="#d3d7cf" offset="1"/>
  </radialGradient>
  <linearGradient id="ae" y2="-22.502" gradientUnits="userSpaceOnUse" x2="-62.75" gradientTransform="translate(-90,60)" y1="49.021" x1="-47.5">
   <stop stop-color="#888a85" offset="0"/>
   <stop stop-color="#babdb6" offset="1"/>
  </linearGradient>
  <radialGradient id="t" gradientUnits="userSpaceOnUse" cy="5.3" cx="4" gradientTransform="matrix(1.886 0 0 1.1765 -3.5441 -4.2353)" r="17">
   <stop stop-color="#fff" offset="0"/>
   <stop stop-color="#fff" stop-opacity="0" offset="1"/>
  </radialGradient>
  <linearGradient id="ad" y2="67.799" gradientUnits="userSpaceOnUse" x2="61.181" gradientTransform="translate(-180)" y1="70.752" x1="58.282">
   <stop offset="0"/>
   <stop stop-opacity="0" offset="1"/>
  </linearGradient>
  <radialGradient id="s" gradientUnits="userSpaceOnUse" cy="10.108" cx="-26.305" gradientTransform="matrix(.40734 -.27983 .75103 1.0932 -115.18 51.562)" r="7.0421">
   <stop stop-color="#fff" offset="0"/>
   <stop stop-color="#fff" offset=".47534"/>
   <stop stop-color="#fff" stop-opacity="0" offset="1"/>
  </radialGradient>
  <linearGradient id="ac" y2="14.07" gradientUnits="userSpaceOnUse" x2="-28.789" gradientTransform="matrix(.92231 0 0 .91858 -92.447 61.326)" y1="11.053" x1="-18.589">
   <stop stop-opacity=".41296" offset="0"/>
   <stop stop-opacity="0" offset="1"/>
  </linearGradient>
  <linearGradient id="ab" y2="9.6875" gradientUnits="userSpaceOnUse" x2="-24.75" y1="11.566" x1="-26.754">
   <stop stop-color="#fff" offset="0"/>
   <stop stop-color="#fff" stop-opacity="0" offset="1"/>
  </linearGradient>
  <linearGradient id="aa" y2="609.51" gradientUnits="userSpaceOnUse" x2="302.86" gradientTransform="matrix(.068343 0 0 .074118 -6.2012 -1.1751)" y1="366.65" x1="302.86">
   <stop stop-opacity="0" offset="0"/>
   <stop offset=".5"/>
   <stop stop-opacity="0" offset="1"/>
  </linearGradient>
  <radialGradient id="r" xlink:href="#a" gradientUnits="userSpaceOnUse" cy="486.65" cx="605.71" gradientTransform="matrix(.10442 0 0 .074118 -27.93 -1.1751)" r="117.14"/>
  <radialGradient id="q" xlink:href="#a" gradientUnits="userSpaceOnUse" cy="486.65" cx="605.71" gradientTransform="matrix(-.016065 0 0 .074118 11.682 -1.1751)" r="117.14"/>
  <linearGradient id="z" y2="2.675" xlink:href="#e" gradientUnits="userSpaceOnUse" x2="20.421" y1="137.98" x1="61.181"/>
  <linearGradient id="y" y2="29.727" gradientUnits="userSpaceOnUse" x2="-11.986" gradientTransform="matrix(1.1142 0 0 1.1667 37.369 -3.9167)" y1="13.123" x1="-11.986">
   <stop stop-color="#555753" offset="0"/>
   <stop stop-color="#fcaf3e" offset="1"/>
  </linearGradient>
  <radialGradient id="p" gradientUnits="userSpaceOnUse" cy="32.837" cx="-6.007" gradientTransform="matrix(1 -1.4872e-8 1.4255e-8 .95855 22.716 2.576)" r="9.9062">
   <stop stop-color="#fce94f" offset="0"/>
   <stop stop-color="#fce94f" stop-opacity="0" offset="1"/>
  </radialGradient>
  <linearGradient id="x" y2="32.409" gradientUnits="userSpaceOnUse" x2="25.355" gradientTransform="matrix(1.1176 0 0 1.5 -2.8235 -15.5)" y1="33.655" x1="25.355">
   <stop stop-color="#2e3436" offset="0"/>
   <stop stop-color="#2e3436" stop-opacity="0" offset="1"/>
  </linearGradient>
  <linearGradient id="w" y2="32.195" gradientUnits="userSpaceOnUse" x2="35.496" y1="37.64" x1="40.942">
   <stop stop-color="#fff" offset="0"/>
   <stop stop-color="#fff" stop-opacity="0" offset="1"/>
  </linearGradient>
  <linearGradient id="v" y2="34.434" xlink:href="#e" gradientUnits="userSpaceOnUse" x2="40.621" y1="36.812" x1="42.999"/>
  <radialGradient id="o" gradientUnits="userSpaceOnUse" cy="34.339" cx="39.437" gradientTransform="matrix(.1875 -1.0534 .71808 .12781 7.8227 71.03)" r="6">
   <stop stop-color="#555753" offset="0"/>
   <stop stop-color="#888a85" offset="1"/>
  </radialGradient>
  <radialGradient id="n" gradientUnits="userSpaceOnUse" cy="34.08" cx="40.18" gradientTransform="matrix(1 0 0 .93561 0 2.3071)" r="4.125">
   <stop stop-color="#fff" offset="0"/>
   <stop stop-color="#fff" stop-opacity="0" offset="1"/>
  </radialGradient>
  <radialGradient id="m" gradientUnits="userSpaceOnUse" cy="25.043" cx="20.237" gradientTransform="matrix(.94091 -.20665 .10982 .50003 -1.5544 13.22)" r="22">
   <stop stop-color="#fff" offset="0"/>
   <stop stop-color="#fff" stop-opacity="0" offset="1"/>
  </radialGradient>
 </defs>
 <metadata>
  <rdf:RDF>
   <cc:Work rdf:about="">
    <dc:format>image/svg+xml</dc:format>
    <dc:type rdf:resource="http://purl.org/dc/dcmitype/StillImage"/>
   </cc:Work>
  </rdf:RDF>
 </metadata>
 <g transform="translate(-44.135 -326.88)">
  <text style="word-spacing:0px;letter-spacing:0px" xml:space="preserve" font-size="14px" y="346.87689" x="72.134987" font-family="Source Code Pro,Deja Vu Sans Mono,Courier,monospace" line-height="125%" fill="#000000"><tspan x="72.134987" y="346.87689">public_html</tspan></text>
  <text style="word-spacing:0px;letter-spacing:0px" line-height="125%" font-size="14px" y="370.87689" x="96.134987" font-family="Source Code Pro,Deja Vu Sans Mono,Courier,monospace" xml:space="preserve" fill="#000000"><tspan y="370.87689" x="96.134987">menu.html</tspan></text>
  <text style="word-spacing:0px;letter-spacing:0px" xml:space="preserve" font-size="14px" y="394.87689" x="96.134987" font-family="Source Code Pro,Deja Vu Sans Mono,Courier,monospace" line-height="125%" fill="#000000"><tspan x="96.134987" y="394.87689">about.html</tspan></text>
  <text style="word-spacing:0px;letter-spacing:0px" line-height="125%" font-size="14px" y="418.87689" x="96.134987" font-family="Source Code Pro,Deja Vu Sans Mono,Courier,monospace" xml:space="preserve" fill="#000000"><tspan y="418.87689" x="96.134987">vacations</tspan><tspan y="436.37689" x="96.134987"/></text>
  <text style="word-spacing:0px;letter-spacing:0px" line-height="125%" font-size="14px" y="442.87689" x="120.13498" font-family="Source Code Pro,Deja Vu Sans Mono,Courier,monospace" xml:space="preserve" fill="#000000"><tspan y="442.87689" x="120.13498">europe.html</tspan></text>
  <text style="word-spacing:0px;letter-spacing:0px" xml:space="preserve" font-size="14px" y="466.87689" x="120.13498" font-family="Source Code Pro,Deja Vu Sans Mono,Courier,monospace" line-height="125%" fill="#000000"><tspan x="120.13498" y="466.87689">asia.html</tspan></text>
  <text style="word-spacing:0px;letter-spacing:0px" line-height="125%" font-size="14px" y="490.87689" x="120.13498" font-family="Source Code Pro,Deja Vu Sans Mono,Courier,monospace" xml:space="preserve" fill="#000000"><tspan y="490.87689" x="120.13498">pictures</tspan></text>
  <text style="word-spacing:0px;letter-spacing:0px" xml:space="preserve" font-size="14px" y="514.87689" x="144.13498" font-family="Source Code Pro,Deja Vu Sans Mono,Courier,monospace" line-height="125%" fill="#000000"><tspan x="144.13498" y="514.87689">eiffel.jpg</tspan></text>
  <text style="word-spacing:0px;letter-spacing:0px" line-height="125%" font-size="14px" y="538.87689" x="144.13498" font-family="Source Code Pro,Deja Vu Sans Mono,Courier,monospace" xml:space="preserve" fill="#000000"><tspan y="538.87689" x="144.13498">big-ben.jpg</tspan></text>
  <g id="an" transform="matrix(.50001 0 0 .5 47.074 329.44)">
   <g>
    <g transform="matrix(.21608 0 0 .26310 -.89323 -10.242)">
     <path opacity=".047872" d="m32.707 164.36c-10.388 0-18.75 8.3625-18.75 18.75s8.3625 18.75 18.75 18.75h172.5c10.388 0 18.75-8.3625 18.75-18.75s-8.3625-18.75-18.75-18.75h-172.5z" fill-rule="evenodd" stroke-width="3pt"/>
     <path opacity=".047872" d="m32.707 165.61c-9.695 0-17.5 7.805-17.5 17.5s7.805 17.5 17.5 17.5h172.5c9.695 0 17.5-7.805 17.5-17.5s-7.805-17.5-17.5-17.5h-172.5z" fill-rule="evenodd" stroke-width="3pt"/>
     <path opacity=".047872" d="m32.707 166.86c-9.0025 0-16.25 7.2475-16.25 16.25s7.2475 16.25 16.25 16.25h172.5c9.0025 0 16.25-7.2475 16.25-16.25s-7.2475-16.25-16.25-16.25h-172.5z" fill-rule="evenodd" stroke-width="3pt"/>
     <path opacity=".047872" d="m32.707 168.11c-8.31 0-15 6.69-15 15s6.69 15 15 15h172.5c8.31 0 15-6.69 15-15s-6.69-15-15-15h-172.5z" fill-rule="evenodd" stroke-width="3pt"/>
     <path opacity=".047872" d="m32.708 169.36c-7.6175 0-13.75 6.1325-13.75 13.75s6.1325 13.75 13.75 13.75h172.5c7.6175 0 13.75-6.1325 13.75-13.75s-6.1325-13.75-13.75-13.75h-172.5z" fill-rule="evenodd" stroke-width="3pt"/>
     <path opacity=".047872" d="m32.707 170.61c-6.925 0-12.5 5.575-12.5 12.5s5.575 12.5 12.5 12.5h172.5c6.925 0 12.5-5.575 12.5-12.5s-5.575-12.5-12.5-12.5h-172.5z" fill-rule="evenodd" stroke-width="3pt"/>
     <path opacity=".047872" d="m32.707 171.86c-6.2325 0-11.25 5.0175-11.25 11.25s5.0175 11.25 11.25 11.25h172.5c6.2325 0 11.25-5.0175 11.25-11.25s-5.0175-11.25-11.25-11.25h-172.5z" fill-rule="evenodd" stroke-width="3pt"/>
     <path opacity=".047872" d="m32.707 173.11c-5.54 0-10 4.46-10 10s4.46 10 10 10h172.5c5.54 0 10-4.46 10-10s-4.46-10-10-10h-172.5z" fill-rule="evenodd" stroke-width="3pt"/>
    </g>
    <path d="m5.4187 5.4561c-0.46498 0-0.81511 0.23523-0.81511 0.72672v33.021c0 0.72715 0.4871 1.2116 1.1491 1.2116h37.737c0.6658 0 0.93031-0.45277 0.93031-1.0866v-28.903c0-0.54297-0.40029-0.83656-0.89906-0.83656h-19.109c-0.33701 0-0.69668-0.19843-0.89448-0.47129l-2.603-3.2c-0.218-0.3006-0.642-0.462-1.013-0.462h-14.483z" fill-rule="evenodd" stroke="#555753" fill="url(#aj)"/>
    <path style="color:#000000" d="m5.0625 7.9062v28.25l0.96875-4.375 0.2188-22.625c0-0.75042 0.51147-1.125 1.237-1.125h11.607c1.5616 0 3.0148 3.1875 5.3177 3.1875 5.9716 0 19.338 0.08759 19.339 0v-1.0312l-19.531-0.125c-1.857-0.011-3.132-3.1558-4.564-3.1558h-13.372c-0.81533 0-1.2213 0.35417-1.2213 1z" fill-rule="evenodd" fill="url(#ai)"/>
    <path stroke-linejoin="round" style="color:#000000" d="m7.6865 16.296h7.9333c0.74173 0 1.368-0.38081 1.6872-0.882 0.13674-0.21471 1.268-2.1257 1.3577-2.2562 0.29879-0.43472 0.77292-0.75892 1.342-0.75892h23.042c0.80284 0 1.4492 0.64379 1.4492 1.4435v25.073c0 0.79968-0.64633 1.4435-1.4492 1.4435h-36.921c-0.80284 0-1.4492-0.64379-1.4492-1.4435v-19.434c0-1.9744 1.1403-3.1856 3.0077-3.1856z" fill-rule="evenodd" stroke="#555753" fill="url(#ah)"/>
    <path style="color:#000000" d="m20.5 13.75c-0.64642 0-1.009 0.2817-1.375 0.75-0.36596 0.4683-0.7815 1.1718-1.0625 1.7188-0.281 0.54694-0.56909 1.0542-0.84375 1.4062-0.27466 0.35208-0.48958 0.5-0.71875 0.5h-9.6572c-0.45833 0-0.83547 0.23052-1.1562 0.53125-0.32078 0.30073-0.59375 0.70625-0.59375 1.2188 1e-7 0.625 0 19.375 0 19.375h1s1e-7 -18.75 0-19.375c0-0.1125 0.10203-0.33198 0.28125-0.5s0.42708-0.25 0.46875-0.25h9.6572c0.64583 0 1.1347-0.40677 1.5-0.875 0.36527-0.46823 0.65656-1.0469 0.9375-1.5938 0.28094-0.54682 0.63117-1.1792 0.90625-1.5312 0.27508-0.35201 0.42544-0.375 0.65625-0.375 1.2167 0 23.25 0.125 23.25 0.125v-1s-21.967-0.125-23.25-0.125z" fill-rule="evenodd" fill="url(#ag)"/>
    <rect style="color:#000000" fill-rule="evenodd" rx="1.4435" ry="1.25" height="1.25" width="1.25" y="7.3598" x="5.529" fill="#fffffd"/>
    <rect stroke-linejoin="round" height="23.625" stroke="url(#af)" stroke-linecap="square" fill="none" style="color:#000000" rx=".43750" ry=".4375" width="37.958" opacity=".28571" y="15.75" x="5.5382"/>
   </g>
  </g>
  <g id="am" transform="matrix(.5 0 0 .5 68.135 354.88)">
   <g transform="translate(150,-60)">
    <rect opacity="0" height="48" width="48" y="60" x="-150"/>
    <g opacity=".65587" transform="matrix(1.0464 0 0 .88889 -151.19 65.722)">
     <g opacity=".4" transform="matrix(1.0526 0 0 1.2857 -1.2632 -13.429)">
      <rect height="7" width="5" y="40" x="38" fill="url(#d)"/>
      <rect transform="scale(-1)" height="7" width="5" y="-47" x="-10" fill="url(#c)"/>
      <rect height="7" width="28" y="40" x="10" fill="url(#f)"/>
     </g>
    </g>
    <g transform="matrix(.95485 0 0 .55556 -148.99 79.889)">
     <g opacity=".4" transform="matrix(1.0526 0 0 1.2857 -1.2632 -13.429)">
      <rect height="7" width="5" y="40" x="38" fill="url(#d)"/>
      <rect transform="scale(-1)" height="7" width="5" y="-47" x="-10" fill="url(#c)"/>
      <rect height="7" width="28" y="40" x="10" fill="url(#f)"/>
     </g>
    </g>
    <path d="m-141.48 63.5h18.976c3.877 0.07294 6.5 2.5 9 5s4.6077 5.2526 5 9v24.976c0 1.1212-0.90264 2.0239-2.0238 2.0239h-30.952c-1.1212 0-2.0239-0.90264-2.0239-2.0239v-36.952c0-1.1212 0.90264-2.0239 2.0239-2.0239z" stroke="url(#ae)" fill="url(#u)"/>
    <path opacity=".68016" d="m8.5312 4c-0.8581 0-1.5312 0.6731-1.5312 1.5312v36.938c0 0.858 0.6731 1.531 1.5312 1.531h30.938c0.858 0 1.531-0.673 1.531-1.531v-24.969c0-1.392-0.48698-4.2995-2.3438-6.1562l-5-5c-1.857-1.857-4.764-2.344-6.156-2.344h-18.969z" transform="translate(-150,60)" fill="url(#t)"/>
    <path opacity=".15" d="m-138.59 69.125c-0.21868 0-0.40625 0.18756-0.40625 0.40625 0 0.21868 0.18757 0.40625 0.40625 0.40625h21.188c0.21868 0 0.40625-0.18757 0.40625-0.40625s-0.18757-0.40625-0.40625-0.40625h-21.188zm0.0625 1.9375c-0.25969 0-0.46875 0.20906-0.46875 0.46875s0.20906 0.46875 0.46875 0.46875h22.062c0.25969 0 0.46875-0.20906 0.46875-0.46875s-0.20906-0.46875-0.46875-0.46875h-22.062zm0 2c-0.25969 0-0.46875 0.20906-0.46875 0.46875s0.20906 0.46875 0.46875 0.46875h25.188c0.25969 0 0.46875-0.20906 0.46875-0.46875s-0.20906-0.46875-0.46875-0.46875h-25.188zm0 2c-0.25969 0-0.46875 0.20906-0.46875 0.46875s0.20906 0.46875 0.46875 0.46875h25.188c0.25969 0 0.46875-0.20906 0.46875-0.46875s-0.20906-0.46875-0.46875-0.46875h-25.188zm0 2c-0.25969 0-0.46875 0.20906-0.46875 0.46875s0.20906 0.46875 0.46875 0.46875h25.188c0.25969 0 0.46875-0.20906 0.46875-0.46875s-0.20906-0.46875-0.46875-0.46875h-25.188z" fill-rule="evenodd" fill="url(#ad)"/>
    <path d="m-122.5 64c-1.3889 0-0.0421 0.49709 1.3438 1.125 1.3858 0.62791 4.9729 3.2151 4.1562 6.875 4.3233-0.43058 6.6791 3.1224 7 4.2812 0.32087 1.1589 1 2.6076 1 1.2188 0.0283-3.8056-2.8454-6.4317-4.8438-8.6562-2-2.225-5.01-4.367-8.66-4.844z" fill="url(#s)"/>
    <path opacity=".87854" d="m-121.4 65.014c0.9223 0 3.0084 6.1957 2.0861 10.329 4.295-0.42776 8.8534 0.08818 9.313 0.93765-0.32087-1.1589-2.6767-4.7118-7-4.2812 0.86466-3.8752-3.1866-6.6173-4.3991-6.9856z" fill="url(#ac)"/>
    <path d="m-51.469 4.5c-0.583 0-1.031 0.4481-1.031 1.0312v36.938c0 0.58316 0.44809 1.0312 1.0312 1.0312h30.938c0.58316 0 1.0312-0.44809 1.0312-1.0312v-24.969c0-1.279-0.48047-4.1055-2.1875-5.8125l-5-5c-1.707-1.7075-4.533-2.188-5.812-2.188h-18.969z" transform="translate(-90,60)" stroke="url(#ab)" fill="none"/>
    <g opacity=".15" transform="matrix(.92889 0 0 1 -148.29 60)">
     <rect fill-rule="evenodd" rx=".50464" ry=".46875" height=".9375" width="28.125" y="19.062" x="10"/>
     <rect fill-rule="evenodd" rx=".50464" ry=".46875" height=".9375" width="28.125" y="21.062" x="10"/>
     <rect fill-rule="evenodd" rx=".50464" ry=".46875" height=".9375" width="28.125" y="23.062" x="10"/>
     <rect fill-rule="evenodd" rx=".50464" ry=".46875" height=".9375" width="28.125" y="25.062" x="10"/>
     <rect fill-rule="evenodd" rx=".50464" ry=".46875" height=".9375" width="28.125" y="27.062" x="10"/>
     <rect fill-rule="evenodd" rx=".50464" ry=".46875" height=".9375" width="28.125" y="29.062" x="10"/>
     <rect fill-rule="evenodd" rx=".50464" ry=".46875" height=".9375" width="28.125" y="31.062" x="10"/>
     <rect fill-rule="evenodd" rx=".50464" ry=".46875" height=".9375" width="28.125" y="33.062" x="10"/>
     <rect fill-rule="evenodd" rx=".50464" ry=".46875" height=".9375" width="28.125" y="35.062" x="10"/>
     <rect fill-rule="evenodd" rx=".50464" ry=".46875" height=".9375" width="13.812" y="37.062" x="10"/>
    </g>
   </g>
  </g>
  <g id="al" transform="matrix(.5 0 0 .5 116.13 500.88)">
   <rect opacity=".39196" style="color:#000000" height="18" width="33" y="26" x="2" fill="url(#aa)"/>
   <path opacity=".40206" style="color:#000000" d="m35 26.001v17.999c2.3096 0.01455 5.0334-0.72731 7.3895-1.9721 3.129-1.654 5.61-4.195 5.61-7.029 0-4.968-6.001-8.998-13-8.998z" fill="url(#r)"/>
   <path opacity=".40206" style="color:#000000" d="m2 26.001v17.999c-0.8273 0.034-2-4.033-2-9.001 0.0000013578-4.968 0.9232-8.998 2-8.998z" fill="url(#q)"/>
   <path stroke-linejoin="round" d="m2.7678 6.5h42.464c0.70234 0 1.2678 0.56542 1.2678 1.2678v22.732c0 0.70234-10.298 10-11 10h-32.732c-0.7026 0-1.268-0.565-1.268-1.268v-31.464c0-0.7026 0.5654-1.268 1.2678-1.268z" stroke="#888a85" stroke-linecap="round" fill="url(#z)"/>
   <path stroke-linejoin="round" d="m4.9875 9.5h38.052c0.27005 0 0.48746 0.22765 0.48746 0.51042v23.979l-3.487 3.511h-35.052c-0.2706 0-0.488-0.228-0.488-0.51v-26.979c0-0.2834 0.2174-0.511 0.4875-0.511z" stroke="#888a85" stroke-linecap="round" fill="url(#y)"/>
   <path style="color:#000000" d="m16.084 23.552c-5.1688 0.32796-9.2813 4.6552-9.2813 9.9062 0 0.20278 0.01921 0.39398 0.03125 0.59375h19.75c0.01204-0.19978 0.03125-0.39096 0.03125-0.59375 0-5.4645-4.4417-9.9062-9.9062-9.9062-0.21346 0-0.41489-0.01333-0.625 0z" fill-rule="evenodd" fill="url(#p)"/>
   <rect rx="0" ry="0" height="3" width="38" y="34" x="5" fill="url(#x)"/>
   <path opacity=".81897" d="m14.781 40h20.625c0.0102-0.0045 0.01696-0.004 0.0625-0.03125 0.09108-0.05454 0.23911-0.15876 0.40625-0.28125 0.33428-0.24497 0.78484-0.5936 1.3125-1.0312 1.0553-0.87529 2.4232-2.0478 3.75-3.25s2.6263-2.4447 3.5938-3.4062c0.48374-0.48078 0.88666-0.88122 1.1562-1.1875 0.1348-0.15314 0.2233-0.29322 0.28125-0.375 0.015-0.021 0.024-0.018 0.032-0.032v-16.625l-31.219 26.219z" fill="url(#w)"/>
   <path d="m29.556 34.972s-0.55558-3.2397-0.55558-5.2245c0.01541-0.9054 7.7867-7.9588 7.8068-9.0094l-1.807 1.655-1.265-3.617 4.265 0.465 2-2.102-2.265 1.747-0.779-0.185-0.956-3.663 0.486 3.57-3.53-0.186 1.105 2.955-3.061-3.187 3.237 4.435c0.000085 0.98928-6.3809 7.0285-6.37 5.9871l-2.646-3.729-0.221-5.042 2-0.6 1.752-4.54-2.31 4.196-1.803-0.086-4.036-3.582-5.542-2.229 4.734 2.734-3.795 0.354h5l3 3.1522 0.35355 5.4448-5.354-5.444 2.251 2.844-3.251 2.409 3.571-2.101 5.65 7.477-0.221 5.102h2.5556z" fill-rule="evenodd"/>
   <path style="color:#000000" fill-rule="evenodd" fill="#fef39e" d="m16.368 28.234c-2.8205 0.17896-5.0647 2.5403-5.0647 5.4057 0 0.11066 0.01048 0.21499 0.01705 0.324h10.777c0.0066-0.10902 0.01705-0.21334 0.01705-0.324 0-2.9819-2.4238-5.4057-5.4057-5.4057-0.11648 0-0.2264-0.0073-0.34106 0z"/>
   <path style="color:#000000" d="m16.449 29.532c-2.1511 0.13649-3.8626 1.9373-3.8626 4.1227 0 0.08439 0.008 0.16396 0.013 0.2471h8.2193c0.005-0.08314 0.01301-0.16271 0.01301-0.2471 0-2.2742-1.8485-4.1227-4.1227-4.1227-0.08883 0-0.17266-0.0055-0.26011 0z" fill-rule="evenodd" fill-opacity=".55682" fill="#fffbd7"/>
   <path stroke-linejoin="round" d="m2.7812 7.5c-0.1559 0-0.2812 0.1253-0.2812 0.2812v31.438c0 0.156 0.1253 0.281 0.2812 0.281h34.5c3.64-2.795 5.085-3.893 8.219-7.25v-24.469c0-0.1557-0.125-0.281-0.281-0.281h-42.438z" stroke="#fff" stroke-linecap="round" fill="none"/>
   <path stroke-linejoin="round" d="m46.5 30.5c0 5-6 10-11 10 0 0 4.4321-2.1626 4-7 4.3797 0.41614 7-3 7-3z" fill-rule="evenodd" stroke="url(#o)" stroke-width="1px" fill="url(#v)"/>
   <path opacity=".73276" d="m45.719 31.969c-1.1412 0.96378-3.0389 2.1206-5.6875 2.0625 0.02848 2.7432-1.3322 4.5563-2.5625 5.6562 1.4844-0.98125 3.3564-2.3157 3.5625-4.6562 2.1611-0.0033 3.588-1.7206 4.6562-3 0.0055-0.02167 0.02592-0.04082 0.03125-0.0625z" fill-rule="evenodd" fill="url(#n)"/>
   <path opacity=".34483" d="m2.7812 7c-0.4275 0-0.7812 0.3537-0.7812 0.7812v23.312c12.715-8.908 32.055-15.468 44-11.781v-11.531c0-0.4273-0.354-0.781-0.781-0.781h-42.438z" fill="url(#m)"/>
   <path opacity=".41810" stroke-linejoin="round" d="m2.7812 7.5c-0.1528 0-0.2812 0.1284-0.2812 0.2812v31.438c0 0.153 0.1284 0.281 0.2812 0.281h32.719c2.1667 0 4.7494-1.1373 6.7188-2.875 1.969-1.738 3.281-4.025 3.281-6.125v-22.719c0-0.1526-0.128-0.281-0.281-0.281h-42.438z" stroke="#fff" stroke-linecap="round" fill="none"/>
  </g>
  <use id="l" xlink:href="#am" transform="translate(1.0227e-7 24)" height="281.64795" width="200.99973" y="0" x="0"/>
  <use id="b" xlink:href="#an" transform="translate(20,76)" height="281.64795" width="200.99973" y="0" x="0"/>
  <use xlink:href="#al" transform="translate(1.0227e-7 24)" height="281.64795" width="200.99973" y="0" x="0"/>
  <use xlink:href="#b" transform="translate(24,72)" height="281.64795" width="200.99973" y="0" x="0"/>
  <use id="k" xlink:href="#l" transform="translate(24 48)" height="281.64795" width="200.99973" y="0" x="0"/>
  <use id="j" xlink:href="#k" transform="translate(1.0227e-7 24)" height="281.64795" width="200.99973" y="0" x="0"/>
  <use id="i" xlink:href="#b" transform="translate(.0000011023 144)" height="300" width="240" y="0" x="0"/>
  <text style="word-spacing:0px;letter-spacing:0px" xml:space="preserve" font-size="14px" y="562.87689" x="96.134987" font-family="Source Code Pro,Deja Vu Sans Mono,Courier,monospace" line-height="125%" fill="#000000"><tspan x="96.134987" y="562.87689">courses</tspan><tspan x="96.134987" y="580.37689"/></text>
  <use id="h" xlink:href="#j" transform="translate(1.0227e-7 120)" height="300" width="240" y="0" x="0"/>
  <text style="word-spacing:0px;letter-spacing:0px" line-height="125%" font-size="14px" y="586.87689" x="120.13498" font-family="Source Code Pro,Deja Vu Sans Mono,Courier,monospace" xml:space="preserve" fill="#000000"><tspan y="586.87689" x="120.13498">cs.html</tspan></text>
  <use id="g" xlink:href="#h" transform="translate(1.0227e-7 24)" height="300" width="240" y="0" x="0"/>
  <text style="word-spacing:0px;letter-spacing:0px" xml:space="preserve" font-size="14px" y="610.87689" x="120.13498" font-family="Source Code Pro,Deja Vu Sans Mono,Courier,monospace" line-height="125%" fill="#000000"><tspan x="120.13498" y="610.87689">math.html</tspan></text>
  <use xlink:href="#i" transform="translate(24 72)" height="300" width="220" y="0" x="0"/>
  <text style="word-spacing:0px;letter-spacing:0px" line-height="125%" font-size="14px" y="634.87689" x="120.13499" font-family="Source Code Pro,Deja Vu Sans Mono,Courier,monospace" xml:space="preserve" fill="#000000"><tspan y="634.87689" x="120.13499">last-semester</tspan><tspan y="652.37689" x="120.13499"/></text>
  <use xlink:href="#g" transform="translate(24,48)" height="300" width="220" y="0" x="0"/>
  <text style="word-spacing:0px;letter-spacing:0px" line-height="125%" font-size="14px" y="658.87689" x="144.13498" font-family="Source Code Pro,Deja Vu Sans Mono,Courier,monospace" xml:space="preserve" fill="#000000"><tspan y="658.87689" x="144.13498">geog.html</tspan></text>
  <path d="m55.635 355.38v204h8" stroke="#000" stroke-width="1px" fill="none"/>
  <path d="m55.635 415.38h8" stroke="#000" stroke-width="1px" fill="none"/>
  <path d="m55.635 367.38h8" stroke="#000" stroke-width="1px" fill="none"/>
  <path d="m55.635 391.38h8" stroke="#000" stroke-width="1px" fill="none"/>
  <path d="m75.635 431.38v56h8" stroke="#000" stroke-width="1px" fill="none"/>
  <path d="m75.635 463.38h8" stroke="#000" stroke-width="1px" fill="none"/>
  <path d="m75.635 439.38h8" stroke="#000" stroke-width="1px" fill="none"/>
  <path d="m99.635 503.38v32h8" stroke="#000" stroke-width="1px" fill="none"/>
  <path d="m99.635 511.38h8" stroke="#000" stroke-width="1px" fill="none"/>
  <path d="m75.635 575.38v56h8" stroke="#000" stroke-width="1px" fill="none"/>
  <path d="m75.635 607.38h8" stroke="#000" stroke-width="1px" fill="none"/>
  <path d="m75.635 583.38h8" stroke="#000" stroke-width="1px" fill="none"/>
  <path d="m99.635 647.38v8h8" stroke="#000" stroke-width="1px" fill="none"/>
 </g>
</svg>
