<?xml version="1.0" encoding="UTF-8" standalone="no"?>
<svg style="position:relative;top:-0.866669px" xmlns="http://www.w3.org/2000/svg" height="150" width="150" version="1.1" overflow="hidden">
 <desc>Created with Raphaël 2.1.2</desc>
 <rect style="" rx="0" ry="0" transform="matrix(.9659 .2588 -.2588 .9659 21.967 -16.856)" width="90" stroke="#000" r="0" y="30" x="30" height="90" fill="none"/>
 <rect style="" rx="0" ry="0" transform="matrix(.866 .5 -.5 .866 47.548 -27.452)" width="90" stroke="#000" r="0" y="30" x="30" height="90" fill="none"/>
 <rect style="" rx="0" ry="0" transform="matrix(.7071 .7071 -.7071 .7071 75 -31.066)" width="90" stroke="#000" r="0" y="30" x="30" height="90" fill="none"/>
 <rect style="" rx="0" ry="0" transform="matrix(.5 .866 -.866 .5 102.45 -27.452)" width="90" stroke="#000" r="0" y="30" x="30" height="90" fill="none"/>
 <rect style="" rx="0" ry="0" transform="matrix(.2588 .9659 -.9659 .2588 128.03 -16.856)" width="90" stroke="#000" r="0" y="30" x="30" height="90" fill="none"/>
 <rect style="" rx="0" ry="0" transform="matrix(0,1,-1,0,150,0)" width="90" stroke="#000" r="0" y="30" x="30" height="90" fill="none"/>
</svg>
